:SAMPLES-PER-SECOND 30
:FULLY-SPECIFIED
:DEGREES
96
root  34.7212874 36.499483 -14.92868859 8.757325172 -6.463717937 4.344661713
lowerback  -6.888100147 -1.843029976 -1.513119936
upperback  -4.57614994 -1.872349977 -3.77354002
thorax  -0.9395319819 -0.7405110002 -3.158250093
lowerneck  0.761687994 -18.74510002 -13.88980007
upperneck  9.690520287 -26.40449715 15.26799965
head  6.715879917 -12.67389965 4.597239971
lclavicle  0 -4.497500157e-015 -2.743230041e-014
lhumerus  -50.87360001 30.02440071 61.01480103
lradius  0.004017283674 -6.507048965e-006 30.28264427
lwrist  4.824992743e-007 -3.790274832e-007 -29.09630013
lhand  -4.421249942e-031 -36.9966011 -10.67780018
lfingers  90 7.125020027 -90
lthumb  94.86194798 -25.51012748 101.1726249
rclavicle  0 -4.497500157e-015 -2.743230041e-014
rhumerus  -41.81669998 -36.59999847 6.401291847
rradius  -5.16745672e-007 2.214343908e-008 89.95850372
rwrist  -0.0001011603963 -0.001600692281 -178.2089996
rhand  -1.770559205e-031 4.305520058 -6.522260189
rfingers  -90 -7.125020027 -90
rthumb  -84.5803041 -9.399525214 -59.84681204
rfemur  -13.58234119 15.9350872 12.32689095
rtibia  -1.85715425 -1.838933825 22.15470314
rfoot  -0.1281089634 -23.08507538 -34.96005249
rtoes  4.183006191 19.57521032 -102.31401
lfemur  -8.473770142 -17.18202591 -21.22611618
ltibia  2.941643715 -1.766767859 14.83698845
lfoot  1.302763224 -22.10944366 38.4192009
ltoes  -8.508223445 -18.1674462 -115.6314583
97
root  34.72154873 36.49979839 -14.9280503 8.764504433 -6.473767281 4.349635124
lowerback  -6.873479366 -1.850289941 -1.511839986
upperback  -4.598949909 -1.878829956 -3.808099985
thorax  -0.9728879929 -0.7423580289 -3.194700003
lowerneck  0.8492490053 -18.78079987 -13.85219955
upperneck  9.638079643 -26.45890045 15.30510044
head  6.693230152 -12.70199966 4.605569839
lclavicle  0 -4.497500157e-015 -2.743230041e-014
lhumerus  -50.92070007 29.98489952 60.93849945
lradius  0.004958621692 -6.507048965e-006 30.27420044
lwrist  4.824992743e-007 -3.790274832e-007 -29.08819962
lhand  -0 -37.00920105 -10.67479992
lfingers  90 7.125020027 -90
lthumb  94.86723263 -25.50673709 101.1858721
rclavicle  0 -4.497500157e-015 -2.743230041e-014
rhumerus  -41.17739868 -36.79019928 6.607320786
rradius  -5.16745672e-007 2.214343908e-008 88.7397995
rwrist  -0.0001011603963 -0.001600692281 -178.4839935
rhand  -1.770409316e-031 4.240600109 -6.721439838
rfingers  -90 -7.125020027 -90
rthumb  -84.69727582 -9.223480689 -59.92655664
rfemur  -13.59062195 15.96068668 12.32152271
rtibia  -1.863942146 -1.84498477 22.15044594
rfoot  -0.1273593009 -23.07928467 -34.9719429
rtoes  4.173571999 19.5771484 -102.2858533
lfemur  -8.513634682 -17.20876503 -21.22292137
ltibia  2.923339605 -1.788087726 14.88957882
lfoot  1.30758369 -22.09820938 38.41760635
ltoes  -8.487998526 -18.17665266 -115.5666081
98
root  34.72186111 36.50026997 -14.92726934 8.778577805 -6.485309124 4.356536865
lowerback  -6.894589901 -1.871180058 -1.581319928
upperback  -4.583000183 -1.902359962 -3.794130087
thorax  -0.9427220225 -0.7527229786 -3.143229961
lowerneck  0.8596119881 -18.80970001 -13.84809971
upperneck  9.585780144 -26.49850082 15.3295002
head  6.683720112 -12.72229958 4.608099937
lclavicle  0 -4.497500157e-015 -2.743230041e-014
lhumerus  -50.96620178 30.07929993 60.86410141
lradius  0.005937456619 -6.507048965e-006 30.26810074
lwrist  4.824992743e-007 -3.790274832e-007 -29.16620064
lhand  -4.421331342e-031 -36.9980011 -10.61380005
lfingers  90 7.125020027 -90
lthumb  94.84887814 -25.44722039 101.1682619
rclavicle  0 -4.497500157e-015 -2.743230041e-014
rhumerus  -40.39440155 -36.93479919 6.601871014
rradius  -5.16745672e-007 2.214343908e-008 87.56770325
rwrist  -0.0001011603963 -0.001600692281 -177.9759979
rhand  -1.770404001e-031 4.238279819 -6.695139885
rfingers  -90 -7.125020027 -90
rthumb  -84.68448373 -9.24609588 -59.92666512
rfemur  -13.59666061 15.96872425 12.31162834
rtibia  -1.870270729 -1.869439125 22.13069153
rfoot  -0.1267369986 -23.101511 -34.9810791
rtoes  4.174742371 19.57690822 -102.2893462
lfemur  -8.539850235 -17.26495934 -21.22686005
ltibia  2.922289133 -1.82567811 14.91826153
lfoot  1.313444614 -22.03751183 38.43598175
ltoes  -8.468054107 -18.18570479 -115.5026884
99
root  34.72199327 36.50034506 -14.92653344 8.791969299 -6.493067741 4.377409458
lowerback  -6.920100212 -1.886520028 -1.610169888
upperback  -4.56607008 -1.920770049 -3.785379887
thorax  -0.9105119705 -0.7616530061 -3.119879961
lowerneck  0.996291995 -18.81380081 -13.7972002
upperneck  9.301289558 -26.49570274 15.41219997
head  6.575640202 -12.73490047 4.649680138
lclavicle  0 -4.497500157e-015 -2.743230041e-014
lhumerus  -50.99409866 30.15390015 60.81200027
lradius  0.006950560026 -6.507048965e-006 30.25713348
lwrist  4.824992743e-007 -3.790274832e-007 -29.20429802
lhand  -0 -37.04859924 -10.65470028
lfingers  90 7.125020027 -90
lthumb  94.88130163 -25.48556652 101.2260135
rclavicle  0 -4.497500157e-015 -2.743230041e-014
rhumerus  -39.55810547 -36.96770477 6.556720734
rradius  -5.16745672e-007 2.214343908e-008 86.54149628
rwrist  -0.0001011603963 -0.001600692281 -177.3139954
rhand  -1.770559926e-031 4.305830002 -6.661159992
rfingers  -90 -7.125020027 -90
rthumb  -84.6509503 -9.279388127 -59.85798257
rfemur  -13.61757565 15.98744583 12.28776932
rtibia  -1.883191228 -1.894436717 22.14201546
rfoot  -0.1266094595 -23.12580299 -34.97288132
rtoes  4.164597786 19.57898771 -102.2590719
lfemur  -8.541163445 -17.30661583 -21.26204872
ltibia  2.943850279 -1.851805687 14.90363693
lfoot  1.321057558 -21.98087311 38.4574585
ltoes  -8.454794545 -18.19170826 -115.4602099
100
root  34.72305658 36.50039312 -14.92592218 8.818422318 -6.524194241 4.3942976
lowerback  -6.927649975 -1.900290012 -1.632269859
upperback  -4.556789875 -1.937749982 -3.784729958
thorax  -0.8966320157 -0.7698600292 -3.108109951
lowerneck  0.9668899775 -18.87389946 -13.78100014
upperneck  9.351149559 -26.57630157 15.34879971
head  6.596539974 -12.77289963 4.612050056
lclavicle  0 -4.497500157e-015 -2.743230041e-014
lhumerus  -51.02259827 30.17259979 60.76620102
lradius  0.007994707674 -6.507048965e-006 30.25061226
lwrist  4.824992743e-007 -3.790274832e-007 -29.15859985
lhand  -4.424510343e-031 -37.05260086 -10.66870022
lfingers  90 7.125020027 -90
lthumb  94.88621767 -25.49916291 101.2316364
rclavicle  0 -4.497500157e-015 -2.743230041e-014
rhumerus  -38.75559998 -36.89179993 6.465960026
rradius  -5.16745672e-007 2.214343908e-008 85.54039764
rwrist  -0.0001011603963 -0.001600692281 -177.0970001
rhand  -1.770450897e-031 4.258709908 -6.59758997
rfingers  -90 -7.125020027 -90
rthumb  -84.63000122 -9.331673117 -59.89870954
rfemur  -13.6583662 15.99059963 12.25983238
rtibia  -1.896567345 -1.908262372 22.14933205
rfoot  -0.1273442209 -23.11256409 -34.95651245
rtoes  4.195169672 19.57270478 -102.3503164
lfemur  -8.598472595 -17.25600243 -21.27183723
ltibia  2.935013294 -1.858017445 14.94393635
lfoot  1.341616511 -22.00268936 38.45226288
ltoes  -8.496603157 -18.17273913 -115.5941945
101
root  34.72374443 36.49994858 -14.92521481 8.854476929 -6.548782825 4.424005508
lowerback  -6.902810574 -1.910590053 -1.631479502
upperback  -4.549520016 -1.953080058 -3.793050051
thorax  -0.9038590193 -0.7780100107 -3.117449999
lowerneck  0.970468998 -18.93519974 -13.77760029
upperneck  9.367609978 -26.66480064 15.35369968
head  6.614429951 -12.81369972 4.598169804
lclavicle  0 -4.497500157e-015 -2.743230041e-014
lhumerus  -51.03430176 30.15060043 60.72430038
lradius  0.009066672996 -6.507048965e-006 30.2371006
lwrist  4.824992743e-007 -3.790274832e-007 -29.14379883
lhand  -0 -37.03239822 -10.66709995
lfingers  90 7.125020027 -90
lthumb  94.87641191 -25.49836945 101.2098786
rclavicle  0 -4.497500157e-015 -2.743230041e-014
rhumerus  -37.9117012 -36.8757019 6.368682861
rradius  -5.16745672e-007 2.214343908e-008 84.43229675
rwrist  -0.0001011603963 -0.001600692281 -176.3999939
rhand  -1.770610053e-031 4.327320099 -6.290150166
rfingers  -90 -7.125020027 -90
rthumb  -84.45665499 -9.60138075 -59.80588321
rfemur  -13.71552849 15.97603989 12.21687317
rtibia  -1.911829352 -1.933571696 22.17854691
rfoot  -0.1296319067 -23.12532997 -34.91049576
rtoes  4.193254943 19.5730997 -102.3446009
lfemur  -8.622347832 -17.17201996 -21.30818367
ltibia  2.964535952 -1.836003184 14.90999603
lfoot  1.355665088 -22.04287338 38.42370987
ltoes  -8.447187085 -18.19514739 -115.4358446
102
root  34.72464254 36.49943194 -14.92436326 8.889949799 -6.580089092 4.442764282
lowerback  -6.929100037 -1.896189928 -1.568719625
upperback  -4.517539978 -1.935359955 -3.841029882
thorax  -0.8595719934 -0.7712240219 -3.202630043
lowerneck  0.9890210032 -18.98690033 -13.73789978
upperneck  9.324179649 -26.73800087 15.38430023
head  6.607470036 -12.84780025 4.593939781
lclavicle  0 -4.497500157e-015 -2.743230041e-014
lhumerus  -50.98600006 30.13279915 60.68019867
lradius  0.01016322803 -6.507048965e-006 30.22640038
lwrist  4.824992743e-007 -3.790274832e-007 -29.18300056
lhand  -4.421191834e-031 -36.99560165 -10.65089989
lfingers  90 7.125020027 -90
lthumb  94.8556777 -25.48372326 101.1690269
rclavicle  0 -4.497500157e-015 -2.743230041e-014
rhumerus  -37.18840027 -36.96170044 6.339879036
rradius  -5.16745672e-007 2.214343908e-008 83.23870087
rwrist  -0.0001011603963 -0.001600692281 -176.0209961
rhand  -0 4.159510136 -6.280340195
rfingers  -90 -7.125020027 -90
rthumb  -84.4931427 -9.600629119 -59.96919122
rfemur  -13.77056694 15.91823292 12.18326664
rtibia  -1.921964645 -1.977764249 22.19940567
rfoot  -0.1436964124 -23.19347954 -34.86193848
rtoes  4.165945556 19.57871174 -102.2630938
lfemur  -8.630590439 -17.213377 -21.33997917
ltibia  2.993243933 -1.856915116 14.8726244
lfoot  1.36394608 -21.97940826 38.47034454
ltoes  -8.460709945 -18.18903141 -115.4791589
